<svg width="261" height="261" viewBox="0 0 261 261" fill="none" xmlns="http://www.w3.org/2000/svg">
<g filter="url(#filter0_d_25_414)">
<rect x="40.724" y="36.3759" width="180" height="180" rx="32" fill="white"/>
<rect x="41.224" y="36.8759" width="179" height="179" rx="31.5" stroke="#D9D9D9"/>
</g>
<path d="M178.41 98.7858C178.445 98.9183 178.464 99.055 178.464 99.1922V120.526C178.464 120.8 178.392 121.069 178.255 121.306C178.117 121.543 177.92 121.74 177.682 121.876L159.776 132.185V152.619C159.776 153.175 159.481 153.688 158.999 153.968L121.621 175.485C121.536 175.534 121.442 175.565 121.349 175.598C121.314 175.61 121.281 175.631 121.244 175.641C120.983 175.71 120.708 175.71 120.447 175.641C120.404 175.629 120.365 175.606 120.324 175.59C120.239 175.559 120.149 175.532 120.067 175.485L82.6978 153.968C82.4604 153.832 82.2631 153.635 82.1259 153.399C81.9887 153.162 81.9163 152.893 81.9161 152.619V88.6165C81.9161 88.4765 81.9356 88.3404 81.9706 88.2082C81.9822 88.1635 82.0095 88.1227 82.025 88.0779C82.0542 87.9963 82.0814 87.9127 82.1242 87.8368C82.1534 87.7863 82.1961 87.7454 82.2311 87.6988C82.2759 87.6366 82.3167 87.5724 82.3692 87.5179C82.4139 87.4732 82.4722 87.4402 82.5228 87.4013C82.5792 87.3546 82.6297 87.3041 82.6939 87.2671H82.6958L101.382 76.5087C101.618 76.3725 101.886 76.3009 102.159 76.3009C102.432 76.3009 102.701 76.3725 102.937 76.5087L121.623 87.2671H121.627C121.689 87.306 121.742 87.3546 121.798 87.3993C121.849 87.4382 121.905 87.4732 121.95 87.516C122.004 87.5724 122.043 87.6366 122.09 87.6988C122.123 87.7454 122.167 87.7863 122.195 87.8368C122.239 87.9146 122.265 87.9963 122.296 88.0779C122.311 88.1227 122.339 88.1635 122.35 88.2102C122.386 88.3427 122.404 88.4793 122.405 88.6165V128.592L137.976 119.626V99.1903C137.976 99.0542 137.995 98.9161 138.03 98.7858C138.044 98.7392 138.069 98.6983 138.084 98.6536C138.116 98.572 138.143 98.4883 138.186 98.4125C138.215 98.362 138.257 98.3211 138.291 98.2745C138.337 98.2122 138.376 98.1481 138.431 98.0936C138.475 98.0489 138.532 98.0159 138.582 97.977C138.641 97.9303 138.691 97.8797 138.753 97.8428H138.755L157.443 87.0843C157.68 86.948 157.948 86.8762 158.221 86.8762C158.494 86.8762 158.762 86.948 158.999 87.0843L177.684 97.8428C177.75 97.8817 177.801 97.9303 177.859 97.975C177.908 98.0139 177.964 98.0489 178.009 98.0917C178.064 98.1481 178.102 98.2122 178.149 98.2745C178.184 98.3211 178.227 98.362 178.254 98.4125C178.299 98.4883 178.324 98.572 178.355 98.6536C178.373 98.6983 178.398 98.7392 178.41 98.7858ZM175.349 119.626V101.885L168.81 105.65L159.776 110.851V128.592L175.351 119.626H175.349ZM156.663 151.719V133.966L147.777 139.041L122.403 153.523V171.443L156.663 151.719ZM85.0311 91.3096V151.719L119.288 171.441V153.525L101.391 143.397L101.386 143.393L101.378 143.389C101.318 143.354 101.267 143.303 101.211 143.26C101.162 143.222 101.106 143.19 101.063 143.148L101.059 143.142C101.008 143.093 100.973 143.033 100.931 142.979C100.892 142.926 100.845 142.881 100.814 142.827L100.812 142.821C100.777 142.763 100.756 142.693 100.73 142.627C100.705 142.568 100.672 142.514 100.656 142.452V142.45C100.637 142.376 100.633 142.298 100.625 142.222C100.618 142.164 100.602 142.105 100.602 142.047V100.275L91.5702 95.072L85.0311 91.3115V91.3096ZM102.161 79.6547L86.5925 88.6165L102.157 97.5784L117.724 88.6146L102.157 79.6547H102.161ZM110.258 135.584L119.29 130.385V91.3096L112.751 95.0739L103.717 100.275V139.35L110.258 135.584ZM158.221 90.2304L142.654 99.1922L158.221 108.154L173.786 99.1903L158.221 90.2304ZM156.663 110.851L147.63 105.65L141.091 101.885V119.626L150.122 124.825L156.663 128.592V110.851ZM120.843 150.83L143.677 137.795L155.09 131.281L139.535 122.325L121.625 132.636L105.302 142.034L120.843 150.83Z" fill="#FF2D20"/>
<defs>
<filter id="filter0_d_25_414" x="0.723999" y="0.375854" width="260" height="260" filterUnits="userSpaceOnUse" color-interpolation-filters="sRGB">
<feFlood flood-opacity="0" result="BackgroundImageFix"/>
<feColorMatrix in="SourceAlpha" type="matrix" values="0 0 0 0 0 0 0 0 0 0 0 0 0 0 0 0 0 0 127 0" result="hardAlpha"/>
<feOffset dy="4"/>
<feGaussianBlur stdDeviation="20"/>
<feComposite in2="hardAlpha" operator="out"/>
<feColorMatrix type="matrix" values="0 0 0 0 0.0367917 0 0 0 0 0.0348958 0 0 0 0 0.0484375 0 0 0 0.1 0"/>
<feBlend mode="normal" in2="BackgroundImageFix" result="effect1_dropShadow_25_414"/>
<feBlend mode="normal" in="SourceGraphic" in2="effect1_dropShadow_25_414" result="shape"/>
</filter>
</defs>
</svg>
