<svg width="261" height="261" viewBox="0 0 261 261" fill="none" xmlns="http://www.w3.org/2000/svg">
<g filter="url(#filter0_d_25_412)">
<rect x="40.724" y="36.3759" width="180" height="180" rx="32" fill="white"/>
<rect x="41.224" y="36.8759" width="179" height="179" rx="31.5" stroke="#D9D9D9"/>
</g>
<path d="M81 129.578V86.2784L118.5 107.928V122.362L93.5 107.928V136.795L81 129.578Z" fill="#00B0FF"/>
<path d="M118.5 107.928L156 86.2784V129.578L131 144.012L118.5 136.795L143.5 122.362V107.928L118.5 122.362V107.928Z" fill="#0081CB"/>
<path d="M118.5 136.795V151.228L143.5 165.662V151.228L118.5 136.795Z" fill="#00B0FF"/>
<path d="M143.5 165.662L181 144.012V115.145L168.5 122.362V136.795L143.5 151.228V165.662ZM168.5 107.928V93.4951L181 86.2784V100.712L168.5 107.928Z" fill="#0081CB"/>
<defs>
<filter id="filter0_d_25_412" x="0.723999" y="0.375854" width="260" height="260" filterUnits="userSpaceOnUse" color-interpolation-filters="sRGB">
<feFlood flood-opacity="0" result="BackgroundImageFix"/>
<feColorMatrix in="SourceAlpha" type="matrix" values="0 0 0 0 0 0 0 0 0 0 0 0 0 0 0 0 0 0 127 0" result="hardAlpha"/>
<feOffset dy="4"/>
<feGaussianBlur stdDeviation="20"/>
<feComposite in2="hardAlpha" operator="out"/>
<feColorMatrix type="matrix" values="0 0 0 0 0.0367917 0 0 0 0 0.0348958 0 0 0 0 0.0484375 0 0 0 0.1 0"/>
<feBlend mode="normal" in2="BackgroundImageFix" result="effect1_dropShadow_25_412"/>
<feBlend mode="normal" in="SourceGraphic" in2="effect1_dropShadow_25_412" result="shape"/>
</filter>
</defs>
</svg>
