<svg width="261" height="261" viewBox="0 0 261 261" fill="none" xmlns="http://www.w3.org/2000/svg">
<g filter="url(#filter0_d_25_416)">
<rect x="40.724" y="36.0789" width="180" height="180" rx="32" fill="white"/>
<rect x="41.224" y="36.5789" width="179" height="179" rx="31.5" stroke="#D9D9D9"/>
</g>
<path d="M173.11 152.918C167.67 152.781 163.453 153.333 159.916 154.852C158.896 155.266 157.263 155.266 157.127 156.578C157.671 157.13 157.739 158.028 158.216 158.787C159.033 160.167 160.46 162.032 161.752 162.999C163.18 164.103 164.609 165.207 166.105 166.174C168.757 167.831 171.75 168.797 174.335 170.454C175.832 171.42 177.327 172.664 178.823 173.699C179.572 174.251 180.047 175.149 181 175.494V175.287C180.523 174.665 180.387 173.768 179.912 173.078C179.232 172.387 178.551 171.766 177.871 171.076C175.899 168.384 173.451 166.036 170.798 164.103C168.622 162.584 163.86 160.513 162.977 157.958C162.977 157.958 162.908 157.89 162.841 157.821C164.337 157.683 166.105 157.13 167.534 156.716C169.846 156.094 171.954 156.233 174.335 155.611C175.423 155.335 176.511 154.99 177.599 154.645V154.024C176.375 152.781 175.491 151.124 174.199 149.95C170.73 146.912 166.921 143.944 162.977 141.458C160.868 140.077 158.147 139.18 155.903 138.006C155.087 137.592 153.727 137.385 153.251 136.695C152.026 135.176 151.346 133.174 150.462 131.379C148.49 127.581 146.585 123.37 144.885 119.366C143.661 116.674 142.913 113.981 141.416 111.496C134.411 99.7594 126.794 92.6485 115.096 85.6752C112.579 84.2257 109.586 83.6043 106.39 82.8452C104.69 82.7757 102.989 82.638 101.289 82.5686C100.201 82.0853 99.1124 80.7738 98.1602 80.1524C94.2842 77.6667 84.2856 72.2823 81.4291 79.3933C79.5925 83.8805 84.1499 88.2986 85.7136 90.5775C86.8707 92.1652 88.3664 93.96 89.1826 95.7552C89.6588 96.9281 89.7944 98.1718 90.2706 99.4142C91.3593 102.451 92.3788 105.835 93.8076 108.666C94.5559 110.115 95.3717 111.634 96.324 112.946C96.8682 113.705 97.8201 114.05 98.0245 115.293C97.0726 116.674 97.0042 118.745 96.4596 120.471C94.0113 128.272 94.964 137.937 98.4322 143.667C99.5202 145.393 102.105 149.191 105.574 147.741C108.635 146.498 107.954 142.563 108.838 139.111C109.043 138.282 108.907 137.73 109.314 137.178V137.316C110.267 139.249 111.219 141.114 112.103 143.046C114.211 146.429 117.884 149.95 120.944 152.298C122.577 153.54 123.869 155.68 125.91 156.44V156.232H125.773C125.365 155.611 124.753 155.335 124.209 154.851C122.985 153.609 121.624 152.09 120.673 150.709C117.816 146.843 115.299 142.563 113.055 138.144C111.967 136.005 111.014 133.657 110.131 131.517C109.722 130.688 109.722 129.446 109.042 129.032C108.022 130.55 106.526 131.862 105.778 133.726C104.486 136.695 104.35 140.354 103.873 144.15C103.601 144.22 103.737 144.15 103.601 144.289C101.425 143.736 100.677 141.458 99.8603 139.525C97.8197 134.624 97.4796 126.753 99.2485 121.092C99.7246 119.642 101.765 115.086 100.949 113.705C100.541 112.393 99.1801 111.634 98.4322 110.598C97.5484 109.287 96.5957 107.63 95.9839 106.18C94.3514 102.314 93.5352 98.0333 91.767 94.1671C90.9508 92.3719 89.5231 90.5085 88.3664 88.8514C87.0744 86.9875 85.646 85.6752 84.6257 83.4662C84.2859 82.7071 83.8094 81.4642 84.3536 80.6357C84.4896 80.0833 84.7613 79.8766 85.3059 79.7385C86.1901 78.9786 88.7069 79.9452 89.5904 80.3595C92.1071 81.3944 94.2154 82.3618 96.324 83.8114C97.2759 84.5019 98.2962 85.8137 99.5202 86.159H100.949C103.125 86.6419 105.573 86.2971 107.614 86.9181C111.219 88.0915 114.483 89.8176 117.408 91.6818C126.318 97.4119 133.662 105.558 138.628 115.293C139.444 116.88 139.784 118.331 140.532 119.987C141.961 123.37 143.729 126.822 145.157 130.136C146.585 133.38 147.945 136.695 149.986 139.387C151.006 140.837 155.087 141.596 156.923 142.356C158.284 142.977 160.392 143.53 161.616 144.289C163.928 145.738 166.241 147.396 168.417 148.983C169.506 149.812 172.906 151.538 173.11 152.918Z" fill="#00546B"/>
<path d="M103.737 92.9239C102.581 92.9239 101.765 93.0628 100.949 93.2695V93.4076H101.085C101.629 94.5123 102.581 95.2718 103.261 96.2381C103.805 97.3424 104.281 98.4476 104.825 99.5523C104.893 99.4829 104.961 99.4142 104.961 99.4142C105.914 98.7233 106.389 97.619 106.389 95.9619C105.981 95.479 105.913 94.9957 105.573 94.5123C105.165 93.8215 104.281 93.4767 103.737 92.9239Z" fill="#00546B"/>
<defs>
<filter id="filter0_d_25_416" x="0.723999" y="0.0788574" width="260" height="260" filterUnits="userSpaceOnUse" color-interpolation-filters="sRGB">
<feFlood flood-opacity="0" result="BackgroundImageFix"/>
<feColorMatrix in="SourceAlpha" type="matrix" values="0 0 0 0 0 0 0 0 0 0 0 0 0 0 0 0 0 0 127 0" result="hardAlpha"/>
<feOffset dy="4"/>
<feGaussianBlur stdDeviation="20"/>
<feComposite in2="hardAlpha" operator="out"/>
<feColorMatrix type="matrix" values="0 0 0 0 0.0367917 0 0 0 0 0.0348958 0 0 0 0 0.0484375 0 0 0 0.1 0"/>
<feBlend mode="normal" in2="BackgroundImageFix" result="effect1_dropShadow_25_416"/>
<feBlend mode="normal" in="SourceGraphic" in2="effect1_dropShadow_25_416" result="shape"/>
</filter>
</defs>
</svg>
